<svg t="1721719583997" class="icon" viewBox="100 100 824 824" version="1.1" xmlns="http://www.w3.org/2000/svg" width="512" height="512">
  <!-- 修改外部路径为圆形 -->
  <circle cx="512" cy="512" r="412" fill="#2db7f5"></circle>
  <!-- 内部路径保持不变 -->
  <path d="M460.8 258.56c55.84896 0 106.40896 22.63552 143.0016 59.2384C640.4096 354.38592 663.04 404.94592 663.04 460.8a201.2928 201.2928 0 0 1-30.47424 106.81344c4.59776 2.75456 7.20896 4.736 9.48736 6.92736l0.6144 0.59904 115.85024 115.85536a43.38176 43.38176 0 0 1 12.7488 30.7712 43.37664 43.37664 0 0 1-11.56096 29.5424l-1.18784 1.2288-7.23968 7.2448a43.38176 43.38176 0 0 1-30.7712 12.7488 43.37664 43.37664 0 0 1-29.5424-11.56608l-1.2288-1.18272-115.85536-115.85536a43.63264 43.63264 0 0 1-6.47168-8.2432c-2.00192-1.76128-2.74944-1.31584-3.49696-0.8704A201.2672 201.2672 0 0 1 460.8 663.04c-55.84896 0-106.40896-22.63552-143.0016-59.2384C281.1904 567.21408 258.56 516.65408 258.56 460.8c0-55.84896 22.63552-106.40896 59.2384-143.0016C354.38592 281.1904 404.94592 258.56 460.8 258.56z m66.23744 66.688c-43.3664-20.69504-87.43936-20.6848-129.8432 0.13312a28.07296 28.07296 0 0 0-14.24384 16.1792 28.07296 28.07296 0 0 0 1.37216 21.50912 28.07296 28.07296 0 0 0 16.1792 14.23872 28.07296 28.07296 0 0 0 21.504-1.36704c26.79808-13.1584 52.9664-13.13792 80.77824 0.13312 7.01952 3.34848 14.73024 3.5328 21.52448 1.13152a28.07296 28.07296 0 0 0 16.02048-14.41792c3.34848-7.0144 3.5328-14.73024 1.1264-21.52448a28.07296 28.07296 0 0 0-14.41792-16.01536z" fill="#FFFFFF" fill-opacity=".9" p-id="5455"></path>
</svg>