<svg t="1726306333055"
     class="icon"
     viewBox="0 0 1024 1024"
     version="1.1"
     xmlns="http://www.w3.org/2000/svg"
     p-id="13803"
     xmlns:xlink="http://www.w3.org/1999/xlink"
     width="18"
     height="18">
  <path d="M424.01 761.66c-44.02 0-86.74-8.63-126.97-25.65-38.84-16.43-73.72-39.94-103.67-69.89-29.94-29.95-53.46-64.82-69.89-103.67-17.02-40.23-25.65-82.95-25.65-126.97 0-44.02 8.63-86.74 25.65-126.97 16.43-38.84 39.94-73.72 69.89-103.67 29.94-29.94 64.82-53.46 103.67-69.89 40.23-17.02 82.95-25.65 126.97-25.65s86.74 8.63 126.97 25.65c38.84 16.43 73.72 39.94 103.67 69.89 29.94 29.95 53.46 64.82 69.89 103.67 17.02 40.23 25.65 82.95 25.65 126.97 0 44.02-8.63 86.74-25.65 126.97-16.43 38.84-39.94 73.72-69.89 103.67-29.95 29.94-64.82 53.46-103.67 69.89-40.23 17.02-82.95 25.65-126.97 25.65z m0-589.34c-145.11 0-263.17 118.06-263.17 263.17S278.9 698.66 424.01 698.66 687.18 580.6 687.18 435.49 569.12 172.32 424.01 172.32z"
        p-id="13804"></path>
  <path d="M894.66 914.68c-8.06 0-16.12-3.08-22.27-9.23L639.81 672.88c-12.3-12.3-12.3-32.25 0-44.55 12.3-12.3 32.25-12.3 44.55 0l232.58 232.58c12.3 12.3 12.3 32.25 0 44.55-6.15 6.15-14.22 9.22-22.28 9.22zM228.63 519.04c-13.94 0-26.68-9.32-30.43-23.43-10.31-38.87-10.43-79.99-0.35-118.92 10.4-40.15 31.48-76.94 60.94-106.41 20.65-20.65 44.58-37.04 71.11-48.71 15.93-7 34.51 0.23 41.51 16.16s-0.23 34.51-16.16 41.51c-19.35 8.51-36.82 20.48-51.92 35.58-42.87 42.87-59.82 105.95-44.25 164.62 4.46 16.82-5.55 34.06-22.37 38.53-2.69 0.72-5.41 1.07-8.08 1.07z"
        p-id="13805"></path>
</svg>