<svg t="1721731044314" class="icon" viewBox="0 0 1024 1024" version="1.1" xmlns="http://www.w3.org/2000/svg" p-id="18461" width="20" height="20"><path d="M833.013 249.55L468.05 612.688c-15.754 15.64-41.097 15.525-56.737-0.115-15.64-15.753-15.525-41.097 0.115-56.736l366.562-364.85H626.387c-22.147 0-40.07-17.923-40.07-40.184s17.923-40.07 40.07-40.07h174.548c62.102 0 112.331 50.344 112.331 112.332v174.548c0 22.147-17.922 40.07-40.183 40.07-22.147 0-40.07-17.923-40.07-40.07V249.55z m0 340.99c0-22.146 17.923-40.069 40.07-40.069 22.146 0 40.183 17.923 40.183 40.07v210.394c0 62.102-50.343 112.331-112.331 112.331h-577.87c-62.102 0-112.331-50.343-112.331-112.331v-577.87c0-62.102 50.343-112.331 112.331-112.331H433.46c22.147 0 40.184 17.922 40.184 40.07s-17.923 40.183-40.184 40.183H223.065c-17.694 0-32.078 14.384-32.078 32.078v577.87c0 17.694 14.384 32.078 32.078 32.078h577.87c17.694 0 32.078-14.384 32.078-32.078V590.54z" p-id="18462"></path></svg>