<svg t="1759563541149"
     class="icon"
     viewBox="0 0 1024 1024"
     version="1.1"
     xmlns="http://www.w3.org/2000/svg"
     width="512"
     height="512">
      <path
            d="M841.774545 116.363636A65.861818 65.861818 0 0 1 907.636364 182.225455v659.54909A65.861818 65.861818 0 0 1 841.774545 907.636364H182.225455A65.861818 65.861818 0 0 1 116.363636 841.774545V182.225455A65.861818 65.861818 0 0 1 182.225455 116.363636h659.54909z m-99.909818 289.582546H673.978182c-4.491636 0-5.632 1.675636-5.632 5.608727l0.581818 340.642909c0 3.351273 1.117091 5.585455 5.585455 5.585455h67.351272c4.491636 0 5.608727-1.675636 5.608728-5.585455V411.554909c0-4.491636-1.675636-5.585455-5.585455-5.585454zM462.429091 281.367273h-90.344727c-2.792727 0-3.933091 1.117091-3.933091 4.491636-0.558545 21.317818-2.234182 28.625455-4.491637 35.909818l-122.88 429.288728c-1.140364 5.632 0 6.749091 4.468364 6.74909h62.859636c4.491636 0 5.608727-0.558545 6.749091-4.491636l34.210909-129.629091h5.632c9.821091 0.046545 31.325091 0.139636 54.202182 0.186182l12.567273 0.023273 12.427636 0.023272h28.253091c14.917818 0 25.134545-0.093091 24.971637-0.232727l35.909818 129.629091c1.117091 2.792727 2.792727 3.933091 6.749091 3.933091h71.819636c3.933091 0 5.050182-1.698909 3.933091-5.608727L468.014545 285.858909c-1.117091-3.374545-2.234182-4.491636-5.608727-4.491636z m-44.893091 69.585454c11.217455 50.501818 39.842909 154.88 51.618909 202.589091h-103.237818c18.501818-66.792727 41.518545-152.087273 50.501818-202.589091z m290.117818-80.802909c-24.133818 0-43.752727 16.290909-43.752727 43.752727 0 28.625455 17.384727 44.357818 42.635636 43.776 26.368 0 44.916364-15.127273 44.916364-43.752727 0-25.832727-17.408-43.776-43.799273-43.776z">
      </path>
</svg>