<svg t="1747192110306"
     class="icon"
     viewBox="0 0 1024 1024"
     version="1.1"
     xmlns="http://www.w3.org/2000/svg"
     p-id="3337"
     width="512"
     height="512">
  <path d="M863.9 361.1c0-1-0.1-2.1-0.3-3.2-11.5-74.9-53.5-143.9-118-194.1-64.5-50.1-146.9-77.7-232.1-77.7-87.2 0-171 28.7-236.1 80.9C212 219.4 171 290.8 162 368.1c-0.1 0.9-0.2 1.8-0.2 2.7-47 8-82.8 49-82.8 98.2v136.9c0 54.9 44.7 99.6 99.6 99.6h4.3c54.9 0 99.6-44.7 99.6-99.6v-137c0-45.6-30.8-84.1-72.7-95.9 16-134 149.2-238.9 303.7-238.9 151.3 0 280.6 98 302.2 228.5-42.7 11.2-74.2 50.2-74.2 96.3v136.9c0 54.9 44.7 99.6 99.6 99.6h4.3c54.9 0 99.6-44.7 99.6-99.6V458.9c0-48.6-35-89.2-81.1-97.8zM234.5 468.9v136.9c0 28.4-23.1 51.6-51.6 51.6h-4.3c-28.4 0-51.6-23.1-51.6-51.6V468.9c0-28.4 23.1-51.6 51.6-51.6h4.3c28.5 0 51.6 23.2 51.6 51.6zM897 595.8c0 28.4-23.1 51.6-51.6 51.6h-4.3c-28.4 0-51.6-23.1-51.6-51.6V458.9c0-28.4 23.1-51.6 51.6-51.6h4.3c28.4 0 51.6 23.1 51.6 51.6v136.9zM459.8 769.4c-38.6 0-71.3 25.8-81.7 61.1h-96c-33.9 0-63.4-23.1-71.7-56.1-3.2-12.9-16.3-20.7-29.1-17.4-12.9 3.2-20.7 16.3-17.4 29.1 6.5 25.9 21.7 49.3 42.7 66 21.4 17 48.3 26.4 75.5 26.4h96c10.4 35.3 43 61.1 81.7 61.1 46.9 0 85.1-38.2 85.1-85.1s-38.2-85.1-85.1-85.1z m0 122.3c-20.5 0-37.1-16.7-37.1-37.1 0-20.5 16.7-37.1 37.1-37.1s37.1 16.7 37.1 37.1-16.7 37.1-37.1 37.1z"
        p-id="3338"></path>
</svg>