<svg t="1726306194492"
     class="icon"
     viewBox="0 0 1024 1024"
     version="1.1"
     xmlns="http://www.w3.org/2000/svg"
     p-id="12678"
     xmlns:xlink="http://www.w3.org/1999/xlink"
     width="18"
     height="18">
  <path d="M331.792709 790.647301c11.756765 0 21.205974-12.607132 21.205974-28.106128L352.998683 453.267341c0-15.503089-9.501398-28.110221-21.205974-28.110221-11.70253 0-21.202904 12.684904-21.202904 28.183899l0 309.271786C310.589804 778.040169 320.090179 790.647301 331.792709 790.647301M512.657986 790.850939c11.756765 0 21.204951-12.607132 21.204951-28.106128L533.862937 453.472002c0-15.503089-9.498328-28.110221-21.204951-28.110221-11.704576 0-21.203928 12.611226-21.203928 28.110221L491.454058 762.744811C491.454058 778.243807 500.902244 790.850939 512.657986 790.850939M689.426969 790.647301c11.756765 0 21.205974-12.607132 21.205974-28.106128L710.632943 453.267341c0-15.503089-9.501398-28.110221-21.205974-28.110221-11.701506 0-21.202904 12.611226-21.202904 28.110221l0 309.272809C668.172899 778.040169 677.671227 790.647301 689.426969 790.647301M838.396815 147.038868 715.004507 147.038868c-13.487176-48.052412-59.626006-83.797521-115.057479-83.797521L421.204088 63.241346c-55.431473 0-101.647051 35.745109-115.062596 83.801615L182.825932 147.042961c-65.821101 0-119.184473 50.115398-119.184473 111.732757l0 27.931143 29.777187 0-0.12689 13.979386 60.044538 0-0.286526 544.761148c0 61.613266 53.441143 111.805412 119.189589 111.805412l476.822826 0c65.821101 0 119.184473-50.192146 119.184473-111.805412l-0.429789-544.761148 60.150962 0-0.090051-13.979386 29.777187 0L957.654966 258.776741C957.581288 197.159382 904.216893 147.038868 838.396815 147.038868M412.06187 105.917308l196.884113 0c24.186865 0 45.121664 16.59905 56.484456 41.125653L355.576391 147.042961C366.93509 122.517381 387.875005 105.917308 412.06187 105.917308M825.728284 843.316871c0 30.803563-44.132126 69.482491-77.003791 69.482491l-476.860688 0c-32.800034 0-76.29464-38.678928-76.29464-69.482491L195.569164 298.640658l630.15912 0L825.728284 843.316871 825.728284 843.316871zM839.255369 258.776741 685.310208 258.776741 339.321172 258.776741 185.296193 258.776741l-73.353658 0c0-37.791721 27.649733-68.531839 61.625546-68.531839l677.57299 0c33.897018 0 61.626569 30.741142 61.626569 68.531839L839.255369 258.776741z"
        p-id="12679"></path>
</svg>