<svg t="1756436103254"
     class="icon"
     viewBox="0 0 1024 1024"
     version="1.1"
     xmlns="http://www.w3.org/2000/svg"
     p-id="3255"
     width="512"
     height="512">
  <path d="M768 85.333333H341.333333c-46.933333 0-85.333333 38.4-85.333333 85.333334v85.333333H170.666667c-46.933333 0-85.333333 38.4-85.333334 85.333333v512c0 46.933333 38.4 85.333333 85.333334 85.333334h426.666666c46.933333 0 85.333333-38.4 85.333334-85.333334v-85.333333h85.333333c46.933333 0 85.333333-38.4 85.333333-85.333333V170.666667c0-46.933333-38.4-85.333333-85.333333-85.333334zM597.333333 853.333333H170.666667V341.333333h426.666666v512z m170.666667-170.666666h-85.333333V341.333333c0-46.933333-38.4-85.333333-85.333334-85.333333H341.333333V170.666667h426.666667v512z"
        p-id="3256"></path>
</svg>
