<svg t="1753169402598"
     class="icon"
     viewBox="0 0 1024 1024"
     version="1.1"
     xmlns="http://www.w3.org/2000/svg"
     p-id="5183"
     width="512"
     height="512">
      <path d="M810.666667 256a42.666667 42.666667 0 0 0-42.666667 42.666667v170.666666a42.666667 42.666667 0 0 1-42.666667 42.666667H316.16l55.466667-55.04a42.666667 42.666667 0 0 0-60.586667-60.586667l-128 128a42.666667 42.666667 0 0 0-8.96 14.08 42.666667 42.666667 0 0 0 0 32.426667 42.666667 42.666667 0 0 0 8.96 14.08l128 128a42.666667 42.666667 0 0 0 60.586667 0 42.666667 42.666667 0 0 0 0-60.586667L316.16 597.333333H725.333333a128 128 0 0 0 128-128V298.666667a42.666667 42.666667 0 0 0-42.666666-42.666667z"
            p-id="5184"></path>
</svg>