<svg t="1747121809120"
     class="icon"
     viewBox="0 0 1024 1024"
     version="1.1"
     xmlns="http://www.w3.org/2000/svg"
     p-id="4814"
     width="512"
     height="512">
      <path d="M871.869 630.356c12.24-39.169 18.361-78.951 18.361-119.344s-6.12-78.951-18.361-115.672l66.098-22.033C952.656 417.372 960 463.274 960 511.011s-7.344 93.639-22.033 137.705l-66.098-18.36z m-22.033-290.099c-39.169-73.443-95.475-128.525-168.918-165.246l33.049-62.426c85.683 44.066 150.557 108.94 194.623 194.623l-58.754 33.049zM629.508 152.979c-39.169-14.689-78.951-22.033-119.344-22.033s-78.951 7.344-115.672 22.033L372.459 86.88c44.066-14.689 89.967-22.033 137.705-22.033s93.639 7.344 137.705 22.033l-18.361 66.099zM339.41 175.011c-73.443 36.721-128.525 91.803-165.246 165.246l-62.426-33.049c44.066-85.683 108.94-150.557 194.623-194.623l33.049 62.426zM64 512.847c0 46.514 7.344 91.803 22.033 135.869l66.098-18.361c-12.24-39.169-18.973-78.951-20.197-119.344-1.224-40.393 5.508-78.951 20.197-115.672l-66.098-22.033C71.344 417.372 64 463.886 64 512.847z m110.164 168.919c36.721 73.443 91.803 129.749 165.246 168.918l-33.049 58.754c-85.683-44.066-150.557-108.94-194.623-194.623l62.426-33.049z m220.328 190.95c36.721 12.24 75.279 18.361 115.672 18.361s80.175-6.12 119.344-18.361l18.361 66.098c-44.066 14.688-89.967 21.421-137.705 20.197-47.738-1.224-93.639-7.956-137.705-20.197l22.033-66.098z m286.426-22.032c73.443-39.169 129.749-95.475 168.918-168.918l58.754 33.049c-44.066 85.683-108.94 150.557-194.623 194.623l-33.049-58.754zM512 578.946c-19.585 0-36.109-6.732-49.574-20.197s-20.197-29.377-20.197-47.738 6.732-34.273 20.197-47.738c13.464-13.465 29.377-20.197 47.738-20.197s34.273 6.732 47.738 20.197c13.465 13.464 20.197 29.377 20.197 47.738s-6.732 34.273-20.197 47.738c-13.465 13.465-28.765 20.197-45.902 20.197z"
            p-id="4815"></path>
</svg>