<svg t="1747121952270"
     class="icon"
     viewBox="0 0 1024 1024"
     version="1.1"
     xmlns="http://www.w3.org/2000/svg"
     p-id="8915"
     width="512"
     height="512">
  <path d="M883.2 83.2l-742.4 0c-51.2 0-92.8 41.6-92.8 89.6l0 582.4c0 48 41.6 89.6 92.8 89.6l256 0c0 0 6.4 6.4 16 19.2 3.2 3.2 6.4 6.4 9.6 12.8 0 0 6.4 9.6 9.6 12.8 28.8 44.8 51.2 67.2 86.4 67.2 35.2 0 60.8-22.4 89.6-67.2 22.4-35.2 28.8-44.8 28.8-44.8l249.6 0c51.2 0 92.8-41.6 92.8-89.6l0-582.4C976 121.6 934.4 83.2 883.2 83.2zM931.2 755.2c0 25.6-19.2 44.8-44.8 44.8l-252.8 0c-6.4 0-9.6 0-16 3.2-9.6 6.4-19.2 12.8-28.8 28.8-3.2 6.4-22.4 35.2-22.4 35.2-19.2 32-35.2 44.8-48 44.8-12.8 0-25.6-12.8-48-44.8-3.2-3.2-6.4-12.8-9.6-12.8-3.2-6.4-6.4-9.6-9.6-12.8-19.2-25.6-32-38.4-54.4-38.4l-256 0c-25.6 0-44.8-19.2-44.8-44.8l0-582.4c0-25.6 22.4-44.8 48-44.8l742.4 0c25.6 0 48 19.2 48 44.8L934.4 755.2z"
        p-id="8916"></path>
  <path d="M220.8 483.2a1.6 1.6 0 1 0 102.4 0 1.6 1.6 0 1 0-102.4 0Z"
        p-id="8917"></path>
  <path d="M460.8 483.2a1.6 1.6 0 1 0 102.4 0 1.6 1.6 0 1 0-102.4 0Z"
        p-id="8918"></path>
  <path d="M697.6 483.2a1.6 1.6 0 1 0 102.4 0 1.6 1.6 0 1 0-102.4 0Z"
        p-id="8919"></path>
</svg>