<svg t="1756436103254"
     class="icon"
     viewBox="0 0 1024 1024"
     version="1.1"
     xmlns="http://www.w3.org/2000/svg"
     p-id="3255"
     width="512"
     height="512">
  <path d="M245.430857 657.718857h228.845714v220.288c0 65.133714 27.428571 119.990857 38.144 119.990857 10.294857 0 37.723429-54.857143 37.723429-119.990857V657.718857h228.425143c29.568 0 51.017143-18.870857 51.017143-47.579428 0-17.993143-5.595429-30.848-18.011429-44.141715l-131.145143-142.281143c-8.996571-9.435429-14.573714-16.274286-12.434285-33.865142l21.869714-156.416c1.28-8.996571 2.139429-14.153143 10.276571-19.730286l104.996572-76.269714c23.588571-17.152 33.865143-38.144 33.865143-57.435429 0-28.708571-23.149714-53.997714-56.137143-53.997714H241.115429c-32.987429 0-56.137143 25.289143-56.137143 53.997714 0 19.291429 10.294857 40.283429 33.426285 57.417143l105.435429 76.306286c8.137143 5.558857 8.996571 10.697143 10.276571 19.712l21.869715 156.416c2.56 17.572571-3.437714 24.429714-12.434286 33.865142l-131.145143 142.281143c-12.434286 13.293714-17.993143 26.148571-17.993143 44.141715 0 28.708571 21.430857 47.579429 50.998857 47.579428z m55.716572-69.010286c-3.858286 0-6.436571-2.56-6.436572-6.418285 0-2.56 1.718857-5.156571 3.858286-7.296l109.714286-114.834286c14.153143-14.153143 19.712-29.586286 18.011428-45.44l-26.587428-206.573714c-2.139429-16.713143-7.716571-29.147429-20.132572-37.723429l-93.001143-61.714286c-2.998857-2.139429-3.858286-4.278857-3.858285-7.277714 0-3.858286 2.998857-6.436571 6.857142-6.436571h444.854858c3.858286 0 6.857143 2.56 6.857142 6.436571 0 2.998857-0.859429 5.138286-3.84 7.277714L644.406857 170.422857c-12.434286 8.594286-17.993143 21.010286-20.132571 37.723429L597.723429 414.72c-1.718857 15.853714 3.84 31.268571 17.554285 45.421714l110.153143 114.852572a10.569143 10.569143 0 0 1 3.419429 7.296c0 3.84-2.139429 6.418286-5.997715 6.418285z"
        p-id="3256"></path>
</svg>